<svg xmlns="http://www.w3.org/2000/svg" width="21.59" height="21.032" viewBox="0 0 21.59 21.032">
  <path id="Search_Icon" data-name="Search Icon" d="M19.457,20.686,13.444,15a1.2,1.2,0,0,1-.192-.234A8.4,8.4,0,0,1,8.33,16.349,8.263,8.263,0,0,1,0,8.174,8.262,8.262,0,0,1,8.33,0a8.263,8.263,0,0,1,8.332,8.174,8.035,8.035,0,0,1-1.716,4.964,1.246,1.246,0,0,1,.265.192l6.013,5.686a1.136,1.136,0,0,1,0,1.671,1.3,1.3,0,0,1-1.767,0ZM1.666,8.174A6.61,6.61,0,0,0,8.33,14.713,6.611,6.611,0,0,0,15,8.174,6.611,6.611,0,0,0,8.33,1.634,6.61,6.61,0,0,0,1.666,8.174Z" fill="#263476"/>
</svg>
